Coordinates
version=1
nRows=20
nColumns=38
inDegrees=no

Units are S.I. units (second, meters, Newtons, ...)
If the header above contains a line with 'inDegrees', this indicates whether rotational values are in degrees (yes) or radians (no).

endheader
time	pelvis_tilt	pelvis_list	pelvis_rotation	pelvis_tx	pelvis_ty	pelvis_tz	hip_flexion_r	hip_adduction_r	hip_rotation_r	knee_angle_r	ankle_angle_r	subtalar_angle_r	mtp_angle_r	hip_flexion_l	hip_adduction_l	hip_rotation_l	knee_angle_l	ankle_angle_l	subtalar_angle_l	mtp_angle_l	lumbar_extension	lumbar_bending	lumbar_rotation	arm_flex_r	arm_add_r	arm_rot_r	elbow_flex_r	pro_sup_r	wrist_flex_r	wrist_dev_r	arm_flex_l	arm_add_l	arm_rot_l	elbow_flex_l	pro_sup_l	wrist_flex_l	wrist_dev_l
0.86	-3.11566	1.31322	-1.52584	0.760301	0.34225	1.10731	0.185798	-0.00953615	0.0259437	1.06407	-0.105834	0	0	-0.251354	-0.0282004	-0.310877	0.403528	-0.106024	0	0	-0.368555	0.0860782	-0.0471436	0.566104	-0.410674	0.576598	1.1544	0.760941	0	0	0.227242	-0.490461	-0.0248983	1.18153	0.757973	0	0
0.87	-3.11155	1.31665	-1.52677	0.757701	0.353264	1.10651	0.205992	-0.013045	0.0107644	1.04219	-0.102237	0	0	-0.258979	-0.0254359	-0.309649	0.403493	-0.104428	0	0	-0.365854	0.0874578	-0.0514776	0.567175	-0.410762	0.578554	1.15675	0.761027	0	0	0.225219	-0.492723	-0.0257817	1.18396	0.755763	0	0
0.88	-3.1061	1.31801	-1.52779	0.754965	0.364468	1.10567	0.22311	-0.0254419	-0.0209209	1.01966	-0.100614	0	0	-0.268631	-0.0230182	-0.309021	0.403801	-0.102936	0	0	-0.364769	0.0890063	-0.0565878	0.567358	-0.410642	0.578435	1.15955	0.760647	0	0	0.223533	-0.495067	-0.0261245	1.1865	0.75304	0	0
0.89	-3.1075	1.3206	-1.5236	0.752691	0.37538	1.10471	0.236039	-0.0232555	-0.0260382	0.987266	-0.0953554	0	0	-0.276419	-0.0223725	-0.307428	0.404659	-0.101046	0	0	-0.363715	0.0913331	-0.058979	0.56734	-0.410533	0.576892	1.16251	0.761361	0	0	0.223629	-0.496937	-0.0258733	1.18852	0.750084	0	0
0.9	-3.10924	1.32386	-1.51944	0.750633	0.38634	1.10346	0.248523	-0.0194213	-0.0268224	0.953258	-0.0906628	0	0	-0.283149	-0.0220507	-0.305473	0.406362	-0.0990476	0	0	-0.362266	0.0931404	-0.0599454	0.565874	-0.411002	0.573615	1.16684	0.762114	0	0	0.224801	-0.498922	-0.0242653	1.1905	0.747127	0	0
0.91	-3.11141	1.32719	-1.51494	0.748595	0.397375	1.10202	0.259614	-0.0153489	-0.0260293	0.917084	-0.0863396	0	0	-0.289413	-0.0220497	-0.303808	0.408956	-0.0984585	0	0	-0.359396	0.0950556	-0.0637062	0.568394	-0.40875	0.57596	1.16547	0.760181	0	0	0.222385	-0.50008	-0.0284488	1.19253	0.748783	0	0
0.92	-3.11379	1.33065	-1.51042	0.746641	0.408527	1.10042	0.269066	-0.0108693	-0.0243547	0.8794	-0.0813765	0	0	-0.295199	-0.0222877	-0.302231	0.412387	-0.0967733	0	0	-0.356802	0.0967786	-0.0660572	0.568983	-0.407427	0.575917	1.16628	0.758745	0	0	0.221176	-0.501098	-0.0309997	1.1944	0.749683	0	0
0.93	-3.11591	1.33419	-1.50646	0.744768	0.419799	1.09871	0.277152	-0.00657121	-0.0219406	0.83977	-0.0769697	0	0	-0.30084	-0.0226113	-0.300798	0.416258	-0.094743	0	0	-0.354285	0.0981862	-0.0675857	0.56903	-0.406938	0.575698	1.16797	0.760393	0	0	0.220497	-0.502124	-0.0327144	1.19625	0.750482	0	0
0.94	-3.1183	1.33787	-1.50272	0.742999	0.431215	1.09686	0.283951	-0.00239257	-0.0187988	0.797762	-0.0727725	0	0	-0.306885	-0.022886	-0.299114	0.41966	-0.0924407	0	0	-0.351557	0.0994371	-0.0683723	0.568172	-0.405979	0.573365	1.16964	0.762416	0	0	0.219909	-0.50268	-0.0345095	1.19794	0.751501	0	0
0.95	-3.12114	1.34156	-1.49891	0.741296	0.442774	1.09491	0.289238	0.00184936	-0.0155189	0.753619	-0.0668966	0	0	-0.313036	-0.0232191	-0.297577	0.423348	-0.0902562	0	0	-0.348847	0.10068	-0.0685658	0.566589	-0.404648	0.569168	1.17148	0.76336	0	0	0.219182	-0.502718	-0.0367619	1.19967	0.752665	0	0
0.96	-3.12434	1.34492	-1.49503	0.739644	0.454458	1.0929	0.292578	0.00637801	-0.0130502	0.708	-0.0561506	0	0	-0.319547	-0.0237316	-0.296364	0.427315	-0.0885608	0	0	-0.34652	0.101967	-0.0683001	0.565014	-0.40381	0.565562	1.17372	0.764668	0	0	0.218382	-0.502357	-0.0393465	1.20145	0.753668	0	0
0.97	-3.12816	1.34776	-1.49076	0.738098	0.466286	1.09085	0.293408	0.0113804	-0.00976854	0.659047	-0.0395314	0	0	-0.32691	-0.0247723	-0.2963	0.431203	-0.08411	0	0	-0.345941	0.103325	-0.0646423	0.558316	-0.404661	0.553805	1.18161	0.772555	0	0	0.221008	-0.502077	-0.0370661	1.20293	0.751443	0	0
0.98	-3.13038	1.35109	-1.48812	0.736646	0.478314	1.08864	0.294116	0.0157051	-0.00929418	0.611047	-0.0214812	0	0	-0.333956	-0.0255642	-0.296246	0.434752	-0.0853812	0	0	-0.342371	0.104284	-0.0661172	0.559909	-0.403216	0.557626	1.18058	0.774219	0	0	0.217576	-0.501481	-0.0431018	1.20454	0.754114	0	0
0.99	-3.13431	1.35368	-1.4838	0.735279	0.490486	1.08643	0.290914	0.0207429	-0.00749578	0.557197	-0.00311508	0	0	-0.341782	-0.0271515	-0.296957	0.438532	-0.0862432	0	0	-0.339975	0.105798	-0.0664451	0.559927	-0.402105	0.558036	1.18149	0.774787	0	0	0.215301	-0.500579	-0.0481075	1.20588	0.756213	0	0
1	-3.13942	1.35591	-1.47795	0.733938	0.502819	1.08417	0.285298	0.0257954	-0.00581898	0.500331	0.0104097	0	0	-0.349988	-0.0293532	-0.297886	0.442415	-0.0874933	0	0	-0.337922	0.107731	-0.0665538	0.559411	-0.401185	0.556618	1.18308	0.775033	0	0	0.213538	-0.499723	-0.052449	1.207	0.758461	0	0
1.01	3.08239	1.33955	-1.41248	0.733069	0.514477	1.08518	0.132988	0.0506064	0.187128	0.10412	-0.147612	0	0	-0.377022	-0.0507203	-0.301506	0.443107	-0.0961384	0	0	-0.358529	0.125863	-0.0659506	0.565014	-0.400335	0.556069	1.1846	0.777404	0	0	0.216419	-0.497523	-0.059329	1.20834	0.762914	0	0
1.02	3.08503	1.34124	-1.41285	0.731786	0.527541	1.08256	0.10909	0.0472642	0.217919	0.00321408	-0.182348	0	0	-0.386313	-0.0523871	-0.304456	0.448132	-0.097513	0	0	-0.355117	0.126077	-0.0677434	0.563395	-0.399659	0.556268	1.18667	0.776708	0	0	0.213594	-0.498063	-0.0625641	1.20988	0.763871	0	0
1.03	3.08982	1.34562	-1.4164	0.730602	0.540774	1.07959	0.114391	0.0476947	0.207812	0	-0.148015	0	0	-0.392405	-0.0526793	-0.306988	0.455456	-0.087956	0	0	-0.351074	0.124888	-0.061897	0.551113	-0.403215	0.540345	1.19975	0.777647	0	0	0.21808	-0.498704	-0.0543374	1.20989	0.759573	0	0
1.04	3.09467	1.34933	-1.41976	0.729415	0.554154	1.07677	0.117298	0.0488415	0.19945	0	-0.122026	0	0	-0.399508	-0.0528823	-0.307202	0.461549	-0.0810432	0	0	-0.346638	0.123878	-0.0577139	0.542064	-0.406408	0.530135	1.20925	0.775536	0	0	0.220976	-0.499114	-0.0482713	1.2095	0.756905	0	0
1.05	3.09755	1.34549	-1.42042	0.728134	0.567388	1.07474	0.114036	0.0511546	0.188182	0	-0.136755	0	0	-0.413015	-0.05702	-0.314193	0.471599	-0.103327	0	0	-0.344474	0.125737	-0.0702549	0.558463	-0.398598	0.556912	1.19168	0.775751	0	0	0.206564	-0.498107	-0.0701804	1.21226	0.766087	0	0
